Coordinates
version=1
nRows=18
nColumns=63
inDegrees=yes

Units are S.I. units (second, meters, Newtons, ...)
If the header above contains a line with 'inDegrees', this indicates whether rotational values are in degrees (yes) or radians (no).

endheader
time	pelvis_tilt	pelvis_list	pelvis_rotation	pelvis_tx	pelvis_ty	pelvis_tz	hip_flexion_r	hip_adduction_r	hip_rotation_r	knee_angle_r	knee_angle_r_beta	ankle_angle_r	subtalar_angle_r	mtp_angle_r	hip_flexion_l	hip_adduction_l	hip_rotation_l	knee_angle_l	knee_angle_l_beta	ankle_angle_l	subtalar_angle_l	mtp_angle_l	L5_S1_Flex_Ext	L5_S1_Lat_Bending	L5_S1_axial_rotation	L4_L5_Flex_Ext	L4_L5_Lat_Bending	L4_L5_axial_rotation	L3_L4_Flex_Ext	L3_L4_Lat_Bending	L3_L4_axial_rotation	L2_L3_Flex_Ext	L2_L3_Lat_Bending	L2_L3_axial_rotation	L1_L2_Flex_Ext	L1_L2_Lat_Bending	L1_L2_axial_rotation	L1_T12_Flex_Ext	L1_T12_Lat_Bending	L1_T12_axial_rotation	Abs_r3	Abs_r2	Abs_r1	Abs_t1	Abs_t2	neck_flexion	neck_bending	neck_rotation	arm_flex_r	arm_add_r	arm_rot_r	elbow_flex_r	pro_sup_r	wrist_flex_r	wrist_dev_r	arm_flex_l	arm_add_l	arm_rot_l	elbow_flex_l	pro_sup_l	wrist_flex_l	wrist_dev_l
0.000000	2.502232	-2.954505	92.960083	0.141566	0.694518	0.757291	5.015954	0.479847	-8.604708	12.413277	0.216653	35.160531	5.673196	0.000000	5.827390	-1.799801	-9.105025	11.585708	0.202209	38.940468	14.221496	0.000000	0.350452	0.150953	-0.510797	0.650825	0.200767	-0.542722	0.575758	0.367027	-0.542722	0.400532	0.367027	-0.446947	0.325430	0.307823	-0.415023	0.200248	0.233826	-0.383098	2.503244	1.707608	-2.840900	0.000000	0.000000	27.743568	0.596738	-0.635386	16.206645	-3.512490	77.146202	35.607448	28.689933	-4.847474	11.489219	13.329533	-6.419709	61.661915	36.042685	84.916070	0.035966	7.410246
0.016667	2.168867	-3.023741	92.508588	0.141544	0.694932	0.757986	5.166555	0.057232	-9.042865	12.544130	0.218936	35.406401	7.252261	0.000000	5.830015	-1.439647	-9.648188	11.471392	0.200214	38.775742	13.993698	0.000000	0.359382	0.114429	-0.407963	0.667408	0.152191	-0.433460	0.590428	0.278223	-0.433460	0.410738	0.278223	-0.356967	0.333722	0.233344	-0.331470	0.205351	0.177251	-0.305972	2.567029	1.294446	-2.268966	0.000000	0.000000	27.734187	0.702606	-1.105877	15.951627	-3.614226	78.415253	35.150471	26.135377	-4.934817	9.591498	13.768185	-6.563659	61.776380	35.798813	84.503642	0.277990	6.419587
0.033333	1.901775	-3.132533	92.226702	0.141432	0.695199	0.758942	5.371971	-0.298534	-9.480377	12.672997	0.221186	35.615968	8.501848	0.000000	5.950998	-1.142656	-10.063462	11.442456	0.199709	38.628916	13.840374	0.000000	0.368023	0.083042	-0.349573	0.683456	0.110446	-0.371422	0.604625	0.201908	-0.371422	0.420614	0.201908	-0.305877	0.341746	0.169339	-0.284028	0.210288	0.128632	-0.262180	2.628753	0.939385	-1.944223	0.000000	0.000000	27.739885	0.848773	-1.492458	15.990653	-3.948005	79.355169	35.458562	24.148269	-4.879196	8.290145	13.866207	-6.969801	61.351304	36.508795	84.277355	0.439119	5.973497
0.050000	1.694685	-3.275377	92.097606	0.141243	0.695331	0.760129	5.624518	-0.593625	-9.915350	12.799877	0.223400	35.792406	9.452664	0.000000	6.176178	-0.902692	-10.359632	11.489287	0.200526	38.498605	13.751471	0.000000	0.376266	0.056363	-0.330693	0.698763	0.074963	-0.351361	0.618167	0.137041	-0.351361	0.430034	0.137041	-0.289356	0.349400	0.114936	-0.268688	0.214998	0.087307	-0.248019	2.687629	0.637591	-1.839213	0.000000	0.000000	27.757857	1.027963	-1.799691	16.287611	-4.482547	79.991533	36.436675	22.677782	-4.701594	7.529783	13.671473	-7.600147	60.456038	38.048649	84.210765	0.534347	6.018077
0.066667	1.541326	-3.446765	92.104486	0.140988	0.695344	0.761515	5.916511	-0.834218	-10.345893	12.924767	0.225580	35.938886	10.135415	0.000000	6.491393	-0.713621	-10.545486	11.602276	0.202498	38.383427	13.716933	0.000000	0.383999	0.033966	-0.346383	0.713124	0.045174	-0.368032	0.630871	0.082584	-0.368032	0.438872	0.082584	-0.303085	0.356581	0.069263	-0.281436	0.219417	0.052613	-0.259787	2.742864	0.384228	-1.926479	0.000000	0.000000	27.785297	1.232898	-2.032138	16.806386	-5.186575	80.349931	37.989766	21.673090	-4.422995	7.255038	13.231860	-8.416704	59.159928	40.294394	84.277427	0.578669	6.499430
0.083333	1.435427	-3.641195	92.230524	0.140678	0.695250	0.763070	6.240266	-1.026487	-10.770111	13.047663	0.227725	36.058581	10.580809	0.000000	6.882482	-0.569307	-10.629812	11.771809	0.205457	38.281998	13.726710	0.000000	0.391112	0.015422	-0.391708	0.726333	0.020512	-0.416190	0.642557	0.037498	-0.416190	0.447001	0.037498	-0.342744	0.363186	0.031449	-0.318263	0.223481	0.023889	-0.293781	2.793671	0.174459	-2.178562	0.000000	0.000000	27.819400	1.456303	-2.194360	17.510867	-6.028809	80.455946	40.022789	21.083366	-4.064383	7.410535	12.595245	-9.381483	57.532323	43.122049	84.450899	0.587080	7.363656
0.100000	1.370718	-3.853159	92.458904	0.140326	0.695063	0.764765	6.588097	-1.176608	-11.186112	13.168562	0.229835	36.154665	10.819554	0.000000	7.335283	-0.463616	-10.621396	11.988276	0.209235	38.192936	13.770746	0.000000	0.397494	0.000305	-0.461730	0.738186	0.000406	-0.490588	0.653042	0.000742	-0.490588	0.454296	0.000742	-0.404014	0.369113	0.000622	-0.375156	0.227128	0.000472	-0.346297	2.839258	0.003451	-2.568004	0.000000	0.000000	27.857360	1.690898	-2.290920	18.364941	-6.977971	80.335165	42.440697	20.857784	-3.646742	7.940898	11.809503	-10.456494	55.642572	46.407632	84.704738	0.574572	8.556859
0.116667	1.340928	-4.077153	92.772810	0.139942	0.694799	0.766567	6.952321	-1.290756	-11.592004	13.287462	0.231910	36.230308	10.882355	0.000000	7.835635	-0.390412	-10.529026	12.242065	0.213664	38.114856	13.838989	0.000000	0.403035	-0.011813	-0.551512	0.748476	-0.015712	-0.585982	0.662146	-0.028723	-0.585982	0.460628	-0.028723	-0.482573	0.374258	-0.024090	-0.448104	0.230294	-0.018299	-0.413634	2.878836	-0.133634	-3.067346	0.000000	0.000000	27.896371	1.929409	-2.326378	19.332493	-8.002783	80.013171	45.148445	20.945517	-3.191057	8.790752	10.922511	-11.603744	53.560022	50.027161	85.012499	0.556142	10.025139
0.133333	1.339787	-4.307673	93.155424	0.139539	0.694470	0.768447	7.325252	-1.375107	-11.985892	13.404358	0.233950	36.288684	10.799921	0.000000	8.369376	-0.343560	-10.361489	12.523565	0.218577	38.046376	13.921386	0.000000	0.407624	-0.021360	-0.656118	0.756998	-0.028409	-0.697126	0.669685	-0.051935	-0.697126	0.465873	-0.051935	-0.574103	0.378519	-0.043558	-0.533096	0.232916	-0.033087	-0.492089	2.911616	-0.241630	-3.649132	0.000000	0.000000	27.933629	2.164557	-2.305298	20.377413	-9.071965	79.515550	48.050989	21.295739	-2.718312	9.904722	9.982145	-12.785245	51.354022	53.856654	85.347739	0.546782	11.714600
0.150000	1.361023	-4.539211	93.589930	0.139128	0.694090	0.770374	7.699207	-1.435835	-12.365883	13.519249	0.235955	36.332966	10.602958	0.000000	8.922346	-0.316927	-10.127572	12.823164	0.223806	37.986113	14.007882	0.000000	0.411150	-0.028763	-0.770610	0.763547	-0.038255	-0.818773	0.675479	-0.069934	-0.818773	0.469904	-0.069934	-0.674284	0.381794	-0.058654	-0.626121	0.234931	-0.044554	-0.577958	2.936806	-0.325373	-4.285903	0.000000	0.000000	27.966328	2.389065	-2.232240	21.463585	-10.154240	78.867886	51.053281	21.857624	-2.249490	11.227432	9.036280	-13.963005	49.093921	57.772131	85.684015	0.561488	13.571342
0.166667	1.398366	-4.766265	94.059512	0.138721	0.693674	0.772317	8.066501	-1.479117	-12.730086	13.632130	0.237926	36.366326	10.322173	0.000000	9.480382	-0.304376	-9.836062	13.131250	0.229184	37.932684	14.088425	0.000000	0.413504	-0.034449	-0.890052	0.767918	-0.045818	-0.945680	0.679346	-0.083760	-0.945680	0.472594	-0.083760	-0.778795	0.383980	-0.070249	-0.723167	0.236276	-0.053362	-0.667539	2.953618	-0.389698	-4.950200	0.000000	0.000000	27.991663	2.595657	-2.111766	22.554898	-11.218328	78.095764	54.060277	22.580346	-1.805577	12.703508	8.132794	-15.099034	46.849066	61.649609	85.994883	0.615253	15.541467
0.183333	1.428764	-4.969162	94.525329	0.138363	0.693287	0.774248	8.404965	-1.530134	-13.088599	13.745367	0.239902	36.383572	10.050555	0.000000	10.007669	-0.288463	-9.536786	13.430401	0.234405	37.868862	14.177907	0.000000	0.414201	-0.040402	-1.001347	0.769213	-0.053734	-1.063931	0.680491	-0.098232	-1.063931	0.473390	-0.098232	-0.876178	0.384627	-0.082387	-0.813594	0.236674	-0.062582	-0.751010	2.958597	-0.457030	-5.569190	0.000000	0.000000	27.982241	2.758119	-1.960878	23.616521	-12.124676	77.625625	56.675533	22.754871	-1.652499	14.247023	7.425788	-16.032286	44.736004	65.052168	86.004121	0.707662	17.465997
0.200000	1.458408	-5.151273	94.983219	0.138036	0.692887	0.776122	8.711323	-1.573758	-13.361279	13.852216	0.241767	36.395827	9.685377	0.000000	10.495877	-0.262961	-9.165292	13.699856	0.239108	37.814334	14.189598	0.000000	0.412011	-0.045562	-1.105963	0.765145	-0.060597	-1.175086	0.676892	-0.110778	-1.175086	0.470887	-0.110778	-0.967718	0.382593	-0.092909	-0.898595	0.235423	-0.070575	-0.829472	2.942951	-0.515401	-6.151035	0.000000	0.000000	27.953977	2.888362	-1.747782	24.545019	-12.936978	76.859870	59.068934	23.299132	-1.522060	15.692187	6.927909	-16.815485	42.871290	68.058204	85.886042	0.936717	19.442297
0.216667	1.484957	-5.311995	95.405117	0.137742	0.692477	0.777917	8.992679	-1.633023	-13.687303	13.974638	0.243903	36.439118	9.466466	0.000000	10.943657	-0.226550	-8.729552	13.945992	0.243403	37.769941	14.102708	0.000000	0.407751	-0.049866	-1.192538	0.757235	-0.066322	-1.267071	0.669894	-0.121245	-1.267071	0.466019	-0.121245	-1.043470	0.378638	-0.101687	-0.968937	0.232989	-0.077243	-0.894403	2.912526	-0.564096	-6.632536	0.000000	0.000000	27.907399	2.943664	-1.547044	25.306476	-13.636164	75.815529	61.167807	24.119887	-1.399658	17.072607	6.704571	-17.409921	41.391109	70.541499	85.789462	1.325918	21.348417
0.233333	1.508819	-5.444231	95.794268	0.137481	0.692068	0.779584	9.230908	-1.687373	-13.941093	14.088813	0.245896	36.475564	9.223725	0.000000	11.336621	-0.184202	-8.259585	14.161526	0.247165	37.736090	13.955211	0.000000	0.401361	-0.053153	-1.260322	0.745367	-0.070694	-1.339092	0.659396	-0.129237	-1.339092	0.458715	-0.129237	-1.102782	0.372704	-0.108390	-1.024012	0.229338	-0.082335	-0.945242	2.866880	-0.601282	-7.009534	0.000000	0.000000	27.849555	2.940388	-1.323257	25.887098	-14.209693	74.562211	62.904438	25.333188	-1.262332	18.393737	6.780454	-17.811487	40.354552	72.456315	85.676325	1.887550	23.166362
0.250000	1.518428	-5.558912	96.142257	0.137264	0.691649	0.781076	9.437439	-1.760971	-14.221916	14.202554	0.247881	36.534061	9.111516	0.000000	11.676443	-0.126099	-7.794120	14.336689	0.250222	37.713113	13.779787	0.000000	0.395755	-0.056696	-1.312666	0.734958	-0.075406	-1.394708	0.650187	-0.137851	-1.394708	0.452309	-0.137851	-1.148583	0.367499	-0.115615	-1.066541	0.226135	-0.087822	-0.984500	2.826842	-0.641357	-7.300657	0.000000	0.000000	27.791976	2.912982	-1.025892	26.298678	-14.618817	73.295119	64.233533	26.407549	-1.160690	19.658904	7.045290	-18.023600	39.546634	73.837948	85.584152	2.580477	24.878380
0.266667	1.518992	-5.642411	96.442727	0.137108	0.691259	0.782374	9.591722	-1.833406	-14.448511	14.296424	0.249520	36.581449	9.031767	0.000000	11.945410	-0.060700	-7.318847	14.467499	0.252505	37.681073	13.565068	0.000000	0.389536	-0.061579	-1.334601	0.723408	-0.081900	-1.418013	0.639969	-0.149723	-1.418013	0.445201	-0.149723	-1.167776	0.361723	-0.125572	-1.084363	0.222581	-0.095386	-1.000951	2.782418	-0.696593	-7.422649	0.000000	0.000000	27.732817	2.796758	-0.853185	26.491320	-14.915630	71.967280	65.180417	27.461404	-1.105836	20.863798	7.606196	-18.035784	39.183761	74.622845	85.561155	3.553688	26.426492
0.283333	1.502721	-5.706971	96.701038	0.137015	0.690899	0.783454	9.712884	-1.914885	-14.636969	14.386093	0.251085	36.627604	9.001075	0.000000	12.160843	0.017966	-6.842239	14.567787	0.254256	37.634968	13.308397	0.000000	0.385461	-0.068148	-1.341511	0.715840	-0.090637	-1.425356	0.633274	-0.165696	-1.425356	0.440544	-0.165696	-1.173822	0.357939	-0.138968	-1.089978	0.220253	-0.105562	-1.006133	2.753312	-0.770906	-7.461083	0.000000	0.000000	27.679865	2.666089	-0.662313	26.568562	-15.073748	70.836660	65.760059	28.277324	-1.189826	22.107023	8.301307	-17.910416	39.043133	74.959538	85.546973	4.563716	27.745011
